<?xml version="1.0" encoding="UTF-8" standalone="no"?>
<!DOCTYPE svg PUBLIC "-//W3C//DTD SVG 1.1//EN"
 "http://www.w3.org/Graphics/SVG/1.1/DTD/svg11.dtd">
<!-- Generated by graphviz version 2.38.0 (20140413.2041)
 -->
<!-- Title: %3 Pages: 1 -->
<svg width="767pt" height="1032pt"
 viewBox="0.00 0.00 766.73 1032.18" xmlns="http://www.w3.org/2000/svg" xmlns:xlink="http://www.w3.org/1999/xlink">
<g id="graph0" class="graph" transform="scale(1 1) rotate(0) translate(4 1028.18)">
<title>%3</title>
<polygon fill="white" stroke="none" points="-4,4 -4,-1028.18 762.73,-1028.18 762.73,4 -4,4"/>
<!-- 020aa6aba1fe786169ee16c3f720bed3604b1129 -->
<g id="node1" class="node"><title>020aa6aba1fe786169ee16c3f720bed3604b1129</title>
<ellipse fill="#b3cde3" stroke="#b3cde3" cx="454.723" cy="-404.61" rx="213.593" ry="26.7407"/>
<text text-anchor="middle" x="454.723" y="-408.41" font-family="Times New Roman,serif" font-size="14.00">baseBuildWithNoFeaturesWithTravisTesting</text>
<text text-anchor="middle" x="454.723" y="-393.41" font-family="Times New Roman,serif" font-size="14.00">origin/baseBuildWithNoFeaturesWithTravisTesting</text>
</g>
<!-- 900a921010c0ad765063ef855af394bcb88a2ec8 -->
<g id="node13" class="node"><title>900a921010c0ad765063ef855af394bcb88a2ec8</title>
<ellipse fill="none" stroke="black" cx="353.723" cy="-323.74" rx="40.8928" ry="18"/>
<text text-anchor="middle" x="353.723" y="-320.04" font-family="Times New Roman,serif" font-size="14.00">900a921</text>
</g>
<!-- 020aa6aba1fe786169ee16c3f720bed3604b1129&#45;&gt;900a921010c0ad765063ef855af394bcb88a2ec8 -->
<g id="edge2" class="edge"><title>020aa6aba1fe786169ee16c3f720bed3604b1129&#45;&gt;900a921010c0ad765063ef855af394bcb88a2ec8</title>
<path fill="none" stroke="black" d="M421.931,-378.003C408.701,-367.672 393.614,-355.891 380.999,-346.04"/>
<polygon fill="black" stroke="black" points="383.147,-343.276 373.111,-339.88 378.838,-348.793 383.147,-343.276"/>
</g>
<!-- 7e4b576566c85a9c066eddff5f025c63b7ae0004 -->
<g id="node16" class="node"><title>7e4b576566c85a9c066eddff5f025c63b7ae0004</title>
<ellipse fill="none" stroke="black" cx="454.723" cy="-323.74" rx="41.6928" ry="18"/>
<text text-anchor="middle" x="454.723" y="-320.04" font-family="Times New Roman,serif" font-size="14.00">7e4b576</text>
</g>
<!-- 020aa6aba1fe786169ee16c3f720bed3604b1129&#45;&gt;7e4b576566c85a9c066eddff5f025c63b7ae0004 -->
<g id="edge3" class="edge"><title>020aa6aba1fe786169ee16c3f720bed3604b1129&#45;&gt;7e4b576566c85a9c066eddff5f025c63b7ae0004</title>
<path fill="none" stroke="black" d="M454.723,-377.348C454.723,-369.247 454.723,-360.308 454.723,-352.132"/>
<polygon fill="black" stroke="black" points="458.223,-351.96 454.723,-341.96 451.223,-351.96 458.223,-351.96"/>
</g>
<!-- 3771cde23d775d1fad326f6986a28ab745a73673 -->
<g id="node2" class="node"><title>3771cde23d775d1fad326f6986a28ab745a73673</title>
<ellipse fill="#b3cde3" stroke="#b3cde3" cx="111.723" cy="-584.09" rx="107.46" ry="26.7407"/>
<text text-anchor="middle" x="111.723" y="-587.89" font-family="Times New Roman,serif" font-size="14.00">origin/sdlCreateWindow</text>
<text text-anchor="middle" x="111.723" y="-572.89" font-family="Times New Roman,serif" font-size="14.00">sdlCreateWindow</text>
</g>
<!-- 0bc251bb56c8bb5dcbfa73db5d848b107f9cd242 -->
<g id="node9" class="node"><title>0bc251bb56c8bb5dcbfa73db5d848b107f9cd242</title>
<ellipse fill="#b3cde3" stroke="#b3cde3" cx="111.723" cy="-494.35" rx="79.8063" ry="26.7407"/>
<text text-anchor="middle" x="111.723" y="-498.15" font-family="Times New Roman,serif" font-size="14.00">origin/sdlInitialise</text>
<text text-anchor="middle" x="111.723" y="-483.15" font-family="Times New Roman,serif" font-size="14.00">sdlInitialise</text>
</g>
<!-- 3771cde23d775d1fad326f6986a28ab745a73673&#45;&gt;0bc251bb56c8bb5dcbfa73db5d848b107f9cd242 -->
<g id="edge4" class="edge"><title>3771cde23d775d1fad326f6986a28ab745a73673&#45;&gt;0bc251bb56c8bb5dcbfa73db5d848b107f9cd242</title>
<path fill="none" stroke="black" d="M111.723,-556.765C111.723,-548.799 111.723,-539.908 111.723,-531.419"/>
<polygon fill="black" stroke="black" points="115.223,-531.354 111.723,-521.354 108.223,-531.354 115.223,-531.354"/>
</g>
<!-- 927d84912b1f0a96cb45f95fba82af2b8366eff7 -->
<g id="node3" class="node"><title>927d84912b1f0a96cb45f95fba82af2b8366eff7</title>
<ellipse fill="#b3cde3" stroke="#b3cde3" cx="618.723" cy="-170.87" rx="140.014" ry="26.7407"/>
<text text-anchor="middle" x="618.723" y="-174.67" font-family="Times New Roman,serif" font-size="14.00">baseBuildWithNoFeatures</text>
<text text-anchor="middle" x="618.723" y="-159.67" font-family="Times New Roman,serif" font-size="14.00">origin/baseBuildWithNoFeatures</text>
</g>
<!-- 99b397393f9876ef797634c77f8980e5446fc1ee -->
<g id="node11" class="node"><title>99b397393f9876ef797634c77f8980e5446fc1ee</title>
<ellipse fill="none" stroke="black" cx="519.723" cy="-90" rx="42.4939" ry="18"/>
<text text-anchor="middle" x="519.723" y="-86.3" font-family="Times New Roman,serif" font-size="14.00">99b3973</text>
</g>
<!-- 927d84912b1f0a96cb45f95fba82af2b8366eff7&#45;&gt;99b397393f9876ef797634c77f8980e5446fc1ee -->
<g id="edge5" class="edge"><title>927d84912b1f0a96cb45f95fba82af2b8366eff7&#45;&gt;99b397393f9876ef797634c77f8980e5446fc1ee</title>
<path fill="none" stroke="black" d="M586.854,-144.481C573.994,-134.236 559.309,-122.537 546.959,-112.698"/>
<polygon fill="black" stroke="black" points="548.835,-109.718 538.833,-106.224 544.474,-115.193 548.835,-109.718"/>
</g>
<!-- cd52d0ac1381b940282c1e5902e0ac54d26b05b0 -->
<g id="node4" class="node"><title>cd52d0ac1381b940282c1e5902e0ac54d26b05b0</title>
<ellipse fill="#b3cde3" stroke="#b3cde3" cx="111.723" cy="-763.571" rx="94.5053" ry="26.7407"/>
<text text-anchor="middle" x="111.723" y="-767.371" font-family="Times New Roman,serif" font-size="14.00">origin/sdlHelloWorld</text>
<text text-anchor="middle" x="111.723" y="-752.371" font-family="Times New Roman,serif" font-size="14.00">sdlHelloWorld</text>
</g>
<!-- 28ef21754f0f748a2033a8b75aa60158022239cb -->
<g id="node5" class="node"><title>28ef21754f0f748a2033a8b75aa60158022239cb</title>
<ellipse fill="#b3cde3" stroke="#b3cde3" cx="111.723" cy="-673.831" rx="105.218" ry="26.7407"/>
<text text-anchor="middle" x="111.723" y="-677.631" font-family="Times New Roman,serif" font-size="14.00">origin/sdlCreateContext</text>
<text text-anchor="middle" x="111.723" y="-662.631" font-family="Times New Roman,serif" font-size="14.00">sdlCreateContext</text>
</g>
<!-- cd52d0ac1381b940282c1e5902e0ac54d26b05b0&#45;&gt;28ef21754f0f748a2033a8b75aa60158022239cb -->
<g id="edge8" class="edge"><title>cd52d0ac1381b940282c1e5902e0ac54d26b05b0&#45;&gt;28ef21754f0f748a2033a8b75aa60158022239cb</title>
<path fill="none" stroke="black" d="M111.723,-736.246C111.723,-728.279 111.723,-719.388 111.723,-710.9"/>
<polygon fill="black" stroke="black" points="115.223,-710.834 111.723,-700.835 108.223,-710.835 115.223,-710.834"/>
</g>
<!-- 28ef21754f0f748a2033a8b75aa60158022239cb&#45;&gt;3771cde23d775d1fad326f6986a28ab745a73673 -->
<g id="edge10" class="edge"><title>28ef21754f0f748a2033a8b75aa60158022239cb&#45;&gt;3771cde23d775d1fad326f6986a28ab745a73673</title>
<path fill="none" stroke="black" d="M111.723,-646.506C111.723,-638.539 111.723,-629.648 111.723,-621.159"/>
<polygon fill="black" stroke="black" points="115.223,-621.094 111.723,-611.094 108.223,-621.094 115.223,-621.094"/>
</g>
<!-- 2fdbf58de5a0b8b8b4e179af03fa9565bca35ed8 -->
<g id="node6" class="node"><title>2fdbf58de5a0b8b8b4e179af03fa9565bca35ed8</title>
<ellipse fill="#b3cde3" stroke="#b3cde3" cx="111.723" cy="-404.61" rx="111.946" ry="26.7407"/>
<text text-anchor="middle" x="111.723" y="-408.41" font-family="Times New Roman,serif" font-size="14.00">origin/sdlIncludeAndLink</text>
<text text-anchor="middle" x="111.723" y="-393.41" font-family="Times New Roman,serif" font-size="14.00">sdlIncludeAndLink</text>
</g>
<!-- 2fdbf58de5a0b8b8b4e179af03fa9565bca35ed8&#45;&gt;900a921010c0ad765063ef855af394bcb88a2ec8 -->
<g id="edge11" class="edge"><title>2fdbf58de5a0b8b8b4e179af03fa9565bca35ed8&#45;&gt;900a921010c0ad765063ef855af394bcb88a2ec8</title>
<path fill="none" stroke="black" d="M176.257,-382.578C219.443,-368.503 275.001,-350.396 312.352,-338.223"/>
<polygon fill="black" stroke="black" points="313.484,-341.536 321.907,-335.109 311.314,-334.88 313.484,-341.536"/>
</g>
<!-- cd02e003d7401bf8bcb1652073e703196a7055b0 -->
<g id="node7" class="node"><title>cd02e003d7401bf8bcb1652073e703196a7055b0</title>
<ellipse fill="#b3cde3" stroke="#b3cde3" cx="111.723" cy="-1006.18" rx="34.394" ry="18"/>
<text text-anchor="middle" x="111.723" y="-1002.48" font-family="Times New Roman,serif" font-size="14.00">master</text>
</g>
<!-- 0598c10747c8aa2143d57d0def2b0d2f6f33ccbe -->
<g id="node8" class="node"><title>0598c10747c8aa2143d57d0def2b0d2f6f33ccbe</title>
<ellipse fill="#b3cde3" stroke="#b3cde3" cx="111.723" cy="-925.311" rx="62.8651" ry="26.7407"/>
<text text-anchor="middle" x="111.723" y="-929.111" font-family="Times New Roman,serif" font-size="14.00">origin/HEAD</text>
<text text-anchor="middle" x="111.723" y="-914.111" font-family="Times New Roman,serif" font-size="14.00">origin/master</text>
</g>
<!-- cd02e003d7401bf8bcb1652073e703196a7055b0&#45;&gt;0598c10747c8aa2143d57d0def2b0d2f6f33ccbe -->
<g id="edge15" class="edge"><title>cd02e003d7401bf8bcb1652073e703196a7055b0&#45;&gt;0598c10747c8aa2143d57d0def2b0d2f6f33ccbe</title>
<path fill="none" stroke="black" d="M111.723,-988.067C111.723,-980.578 111.723,-971.486 111.723,-962.609"/>
<polygon fill="black" stroke="black" points="115.223,-962.394 111.723,-952.394 108.223,-962.394 115.223,-962.394"/>
</g>
<!-- 3c65a8b34c4932d3b97f205a9a3b4c2173ded0cb -->
<g id="node14" class="node"><title>3c65a8b34c4932d3b97f205a9a3b4c2173ded0cb</title>
<ellipse fill="none" stroke="black" cx="111.723" cy="-844.441" rx="41.6928" ry="18"/>
<text text-anchor="middle" x="111.723" y="-840.741" font-family="Times New Roman,serif" font-size="14.00">3c65a8b</text>
</g>
<!-- 0598c10747c8aa2143d57d0def2b0d2f6f33ccbe&#45;&gt;3c65a8b34c4932d3b97f205a9a3b4c2173ded0cb -->
<g id="edge16" class="edge"><title>0598c10747c8aa2143d57d0def2b0d2f6f33ccbe&#45;&gt;3c65a8b34c4932d3b97f205a9a3b4c2173ded0cb</title>
<path fill="none" stroke="black" d="M111.723,-898.048C111.723,-889.947 111.723,-881.008 111.723,-872.833"/>
<polygon fill="black" stroke="black" points="115.223,-872.661 111.723,-862.661 108.223,-872.661 115.223,-872.661"/>
</g>
<!-- 0bc251bb56c8bb5dcbfa73db5d848b107f9cd242&#45;&gt;2fdbf58de5a0b8b8b4e179af03fa9565bca35ed8 -->
<g id="edge17" class="edge"><title>0bc251bb56c8bb5dcbfa73db5d848b107f9cd242&#45;&gt;2fdbf58de5a0b8b8b4e179af03fa9565bca35ed8</title>
<path fill="none" stroke="black" d="M111.723,-467.025C111.723,-459.059 111.723,-450.168 111.723,-441.679"/>
<polygon fill="black" stroke="black" points="115.223,-441.614 111.723,-431.614 108.223,-441.614 115.223,-441.614"/>
</g>
<!-- 6503f5c5e2c12793d8744a6d6684d48921e5ee46 -->
<g id="node10" class="node"><title>6503f5c5e2c12793d8744a6d6684d48921e5ee46</title>
<ellipse fill="none" stroke="black" cx="519.723" cy="-18" rx="40.0939" ry="18"/>
<text text-anchor="middle" x="519.723" y="-14.3" font-family="Times New Roman,serif" font-size="14.00">6503f5c</text>
</g>
<!-- 99b397393f9876ef797634c77f8980e5446fc1ee&#45;&gt;6503f5c5e2c12793d8744a6d6684d48921e5ee46 -->
<g id="edge1" class="edge"><title>99b397393f9876ef797634c77f8980e5446fc1ee&#45;&gt;6503f5c5e2c12793d8744a6d6684d48921e5ee46</title>
<path fill="none" stroke="black" d="M519.723,-71.6966C519.723,-63.9827 519.723,-54.7125 519.723,-46.1124"/>
<polygon fill="black" stroke="black" points="523.223,-46.1043 519.723,-36.1043 516.223,-46.1044 523.223,-46.1043"/>
</g>
<!-- 8c67ee6002aa66acce9a6f4b0f651e6106cd6394 -->
<g id="node12" class="node"><title>8c67ee6002aa66acce9a6f4b0f651e6106cd6394</title>
<ellipse fill="none" stroke="black" cx="420.723" cy="-170.87" rx="40.0939" ry="18"/>
<text text-anchor="middle" x="420.723" y="-167.17" font-family="Times New Roman,serif" font-size="14.00">8c67ee6</text>
</g>
<!-- 8c67ee6002aa66acce9a6f4b0f651e6106cd6394&#45;&gt;99b397393f9876ef797634c77f8980e5446fc1ee -->
<g id="edge6" class="edge"><title>8c67ee6002aa66acce9a6f4b0f651e6106cd6394&#45;&gt;99b397393f9876ef797634c77f8980e5446fc1ee</title>
<path fill="none" stroke="black" d="M439.811,-154.663C454.876,-142.661 476.078,-125.77 492.858,-112.403"/>
<polygon fill="black" stroke="black" points="495.053,-115.129 500.693,-106.16 490.691,-109.654 495.053,-115.129"/>
</g>
<!-- 330ae117e3370cf9f09c1ab4f13e122a2794fd19 -->
<g id="node15" class="node"><title>330ae117e3370cf9f09c1ab4f13e122a2794fd19</title>
<ellipse fill="none" stroke="black" cx="386.723" cy="-251.74" rx="40.0939" ry="18"/>
<text text-anchor="middle" x="386.723" y="-248.04" font-family="Times New Roman,serif" font-size="14.00">330ae11</text>
</g>
<!-- 900a921010c0ad765063ef855af394bcb88a2ec8&#45;&gt;330ae117e3370cf9f09c1ab4f13e122a2794fd19 -->
<g id="edge7" class="edge"><title>900a921010c0ad765063ef855af394bcb88a2ec8&#45;&gt;330ae117e3370cf9f09c1ab4f13e122a2794fd19</title>
<path fill="none" stroke="black" d="M361.711,-305.795C365.521,-297.713 370.166,-287.862 374.413,-278.852"/>
<polygon fill="black" stroke="black" points="377.71,-280.067 378.808,-269.529 371.378,-277.082 377.71,-280.067"/>
</g>
<!-- 3c65a8b34c4932d3b97f205a9a3b4c2173ded0cb&#45;&gt;cd52d0ac1381b940282c1e5902e0ac54d26b05b0 -->
<g id="edge9" class="edge"><title>3c65a8b34c4932d3b97f205a9a3b4c2173ded0cb&#45;&gt;cd52d0ac1381b940282c1e5902e0ac54d26b05b0</title>
<path fill="none" stroke="black" d="M111.723,-826.327C111.723,-818.838 111.723,-809.746 111.723,-800.869"/>
<polygon fill="black" stroke="black" points="115.223,-800.654 111.723,-790.654 108.223,-800.654 115.223,-800.654"/>
</g>
<!-- 330ae117e3370cf9f09c1ab4f13e122a2794fd19&#45;&gt;8c67ee6002aa66acce9a6f4b0f651e6106cd6394 -->
<g id="edge12" class="edge"><title>330ae117e3370cf9f09c1ab4f13e122a2794fd19&#45;&gt;8c67ee6002aa66acce9a6f4b0f651e6106cd6394</title>
<path fill="none" stroke="black" d="M393.933,-234.014C398.411,-223.628 404.262,-210.054 409.354,-198.243"/>
<polygon fill="black" stroke="black" points="412.661,-199.413 413.406,-188.844 406.233,-196.642 412.661,-199.413"/>
</g>
<!-- 7e4b576566c85a9c066eddff5f025c63b7ae0004&#45;&gt;8c67ee6002aa66acce9a6f4b0f651e6106cd6394 -->
<g id="edge13" class="edge"><title>7e4b576566c85a9c066eddff5f025c63b7ae0004&#45;&gt;8c67ee6002aa66acce9a6f4b0f651e6106cd6394</title>
<path fill="none" stroke="black" d="M451.22,-305.648C447.508,-287.707 441.411,-258.695 435.723,-233.74 433.099,-222.226 430.052,-209.545 427.392,-198.677"/>
<polygon fill="black" stroke="black" points="430.777,-197.783 424.988,-188.91 423.98,-199.457 430.777,-197.783"/>
</g>
<!-- 7e4b576566c85a9c066eddff5f025c63b7ae0004&#45;&gt;330ae117e3370cf9f09c1ab4f13e122a2794fd19 -->
<g id="edge14" class="edge"><title>7e4b576566c85a9c066eddff5f025c63b7ae0004&#45;&gt;330ae117e3370cf9f09c1ab4f13e122a2794fd19</title>
<path fill="none" stroke="black" d="M439.293,-306.856C430.425,-297.727 419.125,-286.095 409.276,-275.957"/>
<polygon fill="black" stroke="black" points="411.57,-273.295 402.092,-268.561 406.549,-278.173 411.57,-273.295"/>
</g>
</g>
</svg>
